<mxfile host="app.diagrams.net" modified="2024-03-11T06:12:17.097Z" agent="Mozilla/5.0 (Macintosh; Intel Mac OS X 10_15_7) AppleWebKit/537.36 (KHTML, like Gecko) Chrome/122.0.0.0 Safari/537.36" etag="Ymgex4DpP1qW6caxaLJM" version="24.0.1" type="github" pages="2">
  <diagram name="User use case" id="Ko1R9B8rcGebuMnj-8Z0">
    <mxGraphModel dx="2442" dy="1053" grid="1" gridSize="10" guides="1" tooltips="1" connect="1" arrows="1" fold="1" page="1" pageScale="1" pageWidth="850" pageHeight="1100" math="0" shadow="0">
      <root>
        <mxCell id="0" />
        <mxCell id="1" parent="0" />
        <mxCell id="7w-lUOvfISHX_5LblmBV-1" value="User" style="html=1;outlineConnect=0;whiteSpace=wrap;fillColor=#ffff99;verticalLabelPosition=bottom;verticalAlign=top;align=center;shape=mxgraph.archimate3.actor;" vertex="1" parent="1">
          <mxGeometry x="-395" y="320" width="26.5" height="50" as="geometry" />
        </mxCell>
        <mxCell id="7w-lUOvfISHX_5LblmBV-2" value="Login" style="ellipse;whiteSpace=wrap;html=1;" vertex="1" parent="1">
          <mxGeometry x="-385" y="20" width="140" height="70" as="geometry" />
        </mxCell>
        <mxCell id="7w-lUOvfISHX_5LblmBV-3" value="Logout" style="ellipse;whiteSpace=wrap;html=1;" vertex="1" parent="1">
          <mxGeometry x="-221.75" y="20" width="140" height="70" as="geometry" />
        </mxCell>
        <mxCell id="7w-lUOvfISHX_5LblmBV-4" value="Register" style="ellipse;whiteSpace=wrap;html=1;" vertex="1" parent="1">
          <mxGeometry x="-685" y="220" width="140" height="70" as="geometry" />
        </mxCell>
        <mxCell id="7w-lUOvfISHX_5LblmBV-5" value="" style="edgeStyle=none;html=1;endArrow=none;verticalAlign=bottom;rounded=0;" edge="1" parent="1" source="7w-lUOvfISHX_5LblmBV-1" target="7w-lUOvfISHX_5LblmBV-4">
          <mxGeometry width="160" relative="1" as="geometry">
            <mxPoint x="105" y="510" as="sourcePoint" />
            <mxPoint x="265" y="510" as="targetPoint" />
          </mxGeometry>
        </mxCell>
        <mxCell id="7w-lUOvfISHX_5LblmBV-6" value="" style="edgeStyle=none;html=1;endArrow=none;verticalAlign=bottom;rounded=0;" edge="1" parent="1" source="mbL1N-JP5x9nlFbvt5YW-3" target="7w-lUOvfISHX_5LblmBV-2">
          <mxGeometry width="160" relative="1" as="geometry">
            <mxPoint x="-55" y="230" as="sourcePoint" />
            <mxPoint x="265" y="510" as="targetPoint" />
          </mxGeometry>
        </mxCell>
        <mxCell id="7w-lUOvfISHX_5LblmBV-7" value="" style="edgeStyle=none;html=1;endArrow=none;verticalAlign=bottom;rounded=0;" edge="1" parent="1" source="mbL1N-JP5x9nlFbvt5YW-3" target="7w-lUOvfISHX_5LblmBV-3">
          <mxGeometry width="160" relative="1" as="geometry">
            <mxPoint x="5" y="280" as="sourcePoint" />
            <mxPoint x="265" y="510" as="targetPoint" />
          </mxGeometry>
        </mxCell>
        <mxCell id="7w-lUOvfISHX_5LblmBV-8" value="Search conference by name, topic, ..." style="ellipse;whiteSpace=wrap;html=1;" vertex="1" parent="1">
          <mxGeometry x="-508.5" y="520" width="140" height="70" as="geometry" />
        </mxCell>
        <mxCell id="7w-lUOvfISHX_5LblmBV-9" value="" style="edgeStyle=none;html=1;endArrow=none;verticalAlign=bottom;rounded=0;" edge="1" parent="1" source="7w-lUOvfISHX_5LblmBV-8" target="7w-lUOvfISHX_5LblmBV-1">
          <mxGeometry width="160" relative="1" as="geometry">
            <mxPoint x="105" y="610" as="sourcePoint" />
            <mxPoint x="265" y="610" as="targetPoint" />
          </mxGeometry>
        </mxCell>
        <mxCell id="7w-lUOvfISHX_5LblmBV-10" value="View conference information" style="ellipse;whiteSpace=wrap;html=1;" vertex="1" parent="1">
          <mxGeometry x="-685" y="455" width="140" height="70" as="geometry" />
        </mxCell>
        <mxCell id="7w-lUOvfISHX_5LblmBV-11" value="" style="edgeStyle=none;html=1;endArrow=none;verticalAlign=bottom;rounded=0;" edge="1" parent="1" source="7w-lUOvfISHX_5LblmBV-1" target="7w-lUOvfISHX_5LblmBV-10">
          <mxGeometry width="160" relative="1" as="geometry">
            <mxPoint x="105" y="610" as="sourcePoint" />
            <mxPoint x="265" y="610" as="targetPoint" />
          </mxGeometry>
        </mxCell>
        <mxCell id="7w-lUOvfISHX_5LblmBV-12" value="Like/Follow conference" style="ellipse;whiteSpace=wrap;html=1;" vertex="1" parent="1">
          <mxGeometry x="-685" y="350" width="140" height="70" as="geometry" />
        </mxCell>
        <mxCell id="7w-lUOvfISHX_5LblmBV-13" value="" style="edgeStyle=none;html=1;endArrow=none;verticalAlign=bottom;rounded=0;" edge="1" parent="1" source="7w-lUOvfISHX_5LblmBV-1" target="7w-lUOvfISHX_5LblmBV-12">
          <mxGeometry width="160" relative="1" as="geometry">
            <mxPoint x="105" y="630" as="sourcePoint" />
            <mxPoint x="265" y="630" as="targetPoint" />
          </mxGeometry>
        </mxCell>
        <mxCell id="wwUKpNrrkXiogooI6cal-1" value="Reset password" style="ellipse;whiteSpace=wrap;html=1;" vertex="1" parent="1">
          <mxGeometry x="-55" y="20" width="140" height="70" as="geometry" />
        </mxCell>
        <mxCell id="wwUKpNrrkXiogooI6cal-2" value="" style="edgeStyle=none;html=1;endArrow=none;verticalAlign=bottom;rounded=0;" edge="1" parent="1" source="mbL1N-JP5x9nlFbvt5YW-3" target="wwUKpNrrkXiogooI6cal-1">
          <mxGeometry width="160" relative="1" as="geometry">
            <mxPoint x="105" y="520" as="sourcePoint" />
            <mxPoint x="265" y="520" as="targetPoint" />
          </mxGeometry>
        </mxCell>
        <mxCell id="mbL1N-JP5x9nlFbvt5YW-3" value="" style="html=1;outlineConnect=0;whiteSpace=wrap;fillColor=#ffff99;verticalLabelPosition=bottom;verticalAlign=top;align=center;shape=mxgraph.archimate3.actor;" vertex="1" parent="1">
          <mxGeometry x="-165" y="220" width="26.5" height="50" as="geometry" />
        </mxCell>
        <mxCell id="mbL1N-JP5x9nlFbvt5YW-4" value="" style="endArrow=block;endSize=16;endFill=0;html=1;rounded=0;" edge="1" parent="1" source="7w-lUOvfISHX_5LblmBV-1" target="mbL1N-JP5x9nlFbvt5YW-3">
          <mxGeometry width="160" relative="1" as="geometry">
            <mxPoint x="105" y="340" as="sourcePoint" />
            <mxPoint x="265" y="340" as="targetPoint" />
          </mxGeometry>
        </mxCell>
        <mxCell id="mbL1N-JP5x9nlFbvt5YW-6" value="Admin User" style="shape=umlActor;html=1;verticalLabelPosition=bottom;verticalAlign=top;align=center;" vertex="1" parent="1">
          <mxGeometry x="75" y="310" width="30" height="60" as="geometry" />
        </mxCell>
        <mxCell id="mbL1N-JP5x9nlFbvt5YW-7" value="" style="endArrow=block;endSize=16;endFill=0;html=1;rounded=0;" edge="1" parent="1" source="mbL1N-JP5x9nlFbvt5YW-6" target="mbL1N-JP5x9nlFbvt5YW-3">
          <mxGeometry width="160" relative="1" as="geometry">
            <mxPoint x="-372" y="330" as="sourcePoint" />
            <mxPoint x="-155" y="259" as="targetPoint" />
          </mxGeometry>
        </mxCell>
        <mxCell id="vdh72SyydjpXlibg6nU2-1" value="Reset user password" style="ellipse;whiteSpace=wrap;html=1;" vertex="1" parent="1">
          <mxGeometry x="285" y="220" width="140" height="70" as="geometry" />
        </mxCell>
        <mxCell id="vdh72SyydjpXlibg6nU2-2" value="Configure crawler settings" style="ellipse;whiteSpace=wrap;html=1;" vertex="1" parent="1">
          <mxGeometry x="285" y="360" width="140" height="70" as="geometry" />
        </mxCell>
        <mxCell id="vdh72SyydjpXlibg6nU2-3" value="" style="edgeStyle=none;html=1;endArrow=none;verticalAlign=bottom;rounded=0;" edge="1" parent="1" source="mbL1N-JP5x9nlFbvt5YW-6" target="vdh72SyydjpXlibg6nU2-2">
          <mxGeometry width="160" relative="1" as="geometry">
            <mxPoint x="15" y="480" as="sourcePoint" />
            <mxPoint x="175" y="480" as="targetPoint" />
          </mxGeometry>
        </mxCell>
        <mxCell id="vdh72SyydjpXlibg6nU2-4" value="" style="edgeStyle=none;html=1;endArrow=none;verticalAlign=bottom;rounded=0;" edge="1" parent="1" source="mbL1N-JP5x9nlFbvt5YW-6" target="vdh72SyydjpXlibg6nU2-1">
          <mxGeometry width="160" relative="1" as="geometry">
            <mxPoint x="145" y="320" as="sourcePoint" />
            <mxPoint x="175" y="480" as="targetPoint" />
          </mxGeometry>
        </mxCell>
        <mxCell id="vdh72SyydjpXlibg6nU2-5" value="Hide conference" style="ellipse;whiteSpace=wrap;html=1;" vertex="1" parent="1">
          <mxGeometry x="285" y="500" width="140" height="70" as="geometry" />
        </mxCell>
        <mxCell id="vdh72SyydjpXlibg6nU2-6" value="" style="edgeStyle=none;html=1;endArrow=none;verticalAlign=bottom;rounded=0;" edge="1" parent="1" source="mbL1N-JP5x9nlFbvt5YW-6" target="vdh72SyydjpXlibg6nU2-5">
          <mxGeometry width="160" relative="1" as="geometry">
            <mxPoint x="-185" y="340" as="sourcePoint" />
            <mxPoint x="-25" y="340" as="targetPoint" />
          </mxGeometry>
        </mxCell>
      </root>
    </mxGraphModel>
  </diagram>
  <diagram id="NqYsSnR_FxuWyYMR4bEE" name="Page-2">
    <mxGraphModel dx="1194" dy="790" grid="1" gridSize="10" guides="1" tooltips="1" connect="1" arrows="1" fold="1" page="1" pageScale="1" pageWidth="850" pageHeight="1100" math="0" shadow="0">
      <root>
        <mxCell id="0" />
        <mxCell id="1" parent="0" />
        <mxCell id="ymZag1a3ycLIATQBdV38-1" value="Admin" style="shape=umlActor;html=1;verticalLabelPosition=bottom;verticalAlign=top;align=center;" vertex="1" parent="1">
          <mxGeometry x="60" y="350" width="30" height="60" as="geometry" />
        </mxCell>
        <mxCell id="ymZag1a3ycLIATQBdV38-2" value="Login" style="ellipse;whiteSpace=wrap;html=1;" vertex="1" parent="1">
          <mxGeometry x="355" y="50" width="140" height="70" as="geometry" />
        </mxCell>
        <mxCell id="ymZag1a3ycLIATQBdV38-3" value="Logout" style="ellipse;whiteSpace=wrap;html=1;" vertex="1" parent="1">
          <mxGeometry x="495" y="140" width="140" height="70" as="geometry" />
        </mxCell>
        <mxCell id="ymZag1a3ycLIATQBdV38-5" value="Reset password" style="ellipse;whiteSpace=wrap;html=1;" vertex="1" parent="1">
          <mxGeometry x="570" y="250" width="140" height="70" as="geometry" />
        </mxCell>
        <mxCell id="ymZag1a3ycLIATQBdV38-6" value="Reset user password" style="ellipse;whiteSpace=wrap;html=1;" vertex="1" parent="1">
          <mxGeometry x="570" y="370" width="140" height="70" as="geometry" />
        </mxCell>
        <mxCell id="ymZag1a3ycLIATQBdV38-7" value="Configure crawler settings" style="ellipse;whiteSpace=wrap;html=1;" vertex="1" parent="1">
          <mxGeometry x="230" y="590" width="140" height="70" as="geometry" />
        </mxCell>
      </root>
    </mxGraphModel>
  </diagram>
</mxfile>
